<?xml version="1.0" standalone="no"?>
<!DOCTYPE svg PUBLIC "-//W3C//DTD SVG 20010904//EN"
 "http://www.w3.org/TR/2001/REC-SVG-20010904/DTD/svg10.dtd">
<svg version="1.0" xmlns="http://www.w3.org/2000/svg"
 width="16.000000pt" height="16.000000pt" viewBox="0 0 16.000000 16.000000"
 preserveAspectRatio="xMidYMid meet">
<metadata>
Created by potrace 1.11, written by Peter Selinger 2001-2013
</metadata>
<g transform="translate(0.000000,16.000000) scale(0.004444,-0.004444)"
fill="#000000" stroke="none">
<path d="M2527 3259 c7 -7 15 -10 18 -7 3 3 -2 9 -12 12 -14 6 -15 5 -6 -5z"/>
<path d="M2401 3241 c-8 -5 -9 -11 -3 -15 5 -3 12 1 16 9 6 17 6 18 -13 6z"/>
<path d="M2468 3238 c8 -10 9 -19 3 -22 -5 -4 -15 2 -21 11 -11 17 -11 17 -6
1 6 -20 -10 -25 -17 -5 -3 6 -6 8 -6 2 -1 -19 19 -41 27 -30 9 13 21 13 49 -3
12 -7 24 -8 27 -3 5 8 -7 21 -49 51 -18 14 -19 14 -7 -2z m52 -44 c0 -2 -9 0
-20 6 -11 6 -20 13 -20 16 0 2 9 0 20 -6 11 -6 20 -13 20 -16z"/>
<path d="M2510 3242 c0 -4 6 -14 12 -20 7 -7 13 -27 14 -45 1 -18 -1 -26 -3
-19 -3 6 -10 12 -18 12 -7 0 -18 7 -25 15 -11 13 -15 13 -41 -1 -16 -8 -29
-20 -29 -26 0 -6 -3 -8 -6 -5 -4 4 -2 12 4 19 7 9 6 17 -3 25 -9 8 -16 9 -20
3 -3 -6 -1 -10 5 -10 6 0 8 -5 5 -11 -9 -14 -18 -4 -20 23 -1 15 -9 22 -25 23
-20 2 -21 0 -6 -10 18 -14 22 -30 4 -19 -7 4 -8 3 -4 -4 4 -7 1 -12 -9 -12 -9
0 -13 -5 -10 -11 5 -7 14 -4 28 8 12 10 19 14 15 9 -4 -5 -3 -15 3 -23 9 -9 8
-13 0 -13 -6 0 -11 5 -11 11 0 5 -5 7 -10 4 -6 -4 -7 -11 -4 -17 4 -7 2 -8 -4
-4 -7 4 -12 2 -12 -4 0 -7 -8 -9 -20 -5 -21 7 -25 -13 -5 -27 6 -5 6 -8 -1 -8
-6 0 -18 8 -25 17 -12 14 -12 16 0 8 9 -5 12 -4 8 2 -4 6 0 16 8 23 11 9 15 9
15 1 0 -7 5 -9 11 -5 8 4 6 10 -6 17 -12 6 -20 6 -25 -3 -4 -6 -11 -11 -16
-11 -5 1 -9 -5 -9 -11 0 -7 -10 -17 -23 -23 -12 -5 -20 -15 -18 -22 3 -7 1
-15 -4 -18 -5 -3 -11 3 -13 12 -4 17 -5 17 -6 1 0 -10 -6 -18 -12 -18 -5 0 -7
5 -3 12 5 7 3 8 -5 3 -16 -9 -2 -24 28 -30 14 -2 19 0 15 7 -4 7 -3 8 4 4 7
-4 10 1 7 13 -3 15 0 18 12 14 11 -4 14 -2 9 5 -5 8 -2 10 8 6 9 -3 16 -13 16
-21 0 -10 -6 -12 -22 -7 -19 6 -21 4 -11 -7 8 -10 9 -20 3 -29 -9 -13 -10 -13
-10 0 0 13 -1 13 -10 0 -7 -11 -10 -11 -10 -2 0 7 -5 10 -10 7 -8 -5 -7 -12 2
-23 11 -13 11 -14 -1 -8 -10 7 -12 3 -7 -15 3 -13 3 -18 0 -11 -3 6 -10 10
-14 7 -5 -3 -12 0 -16 6 -4 8 -3 9 4 5 7 -4 12 -3 12 3 0 17 -20 23 -26 7 -3
-9 -12 -12 -21 -9 -10 4 -14 2 -10 -4 8 -13 -19 -11 -30 2 -4 4 -3 5 4 1 14
-8 36 27 25 39 -4 5 -1 5 5 1 23 -13 52 -15 59 -4 4 6 3 8 -4 4 -5 -3 -19 6
-30 21 l-19 27 -14 -37 c-7 -20 -17 -37 -21 -37 -5 0 -5 8 0 18 5 9 8 25 7 35
-2 9 2 17 8 17 5 0 7 3 4 6 -4 4 -18 -1 -33 -10 -14 -10 -29 -14 -32 -10 -4 4
-1 9 6 11 6 3 12 9 12 14 0 6 -4 8 -9 4 -5 -3 -12 3 -14 12 -4 17 -5 17 -6 0
-1 -16 -3 -17 -32 -1 -17 8 -28 11 -25 5 4 -6 2 -11 -5 -11 -6 0 -9 8 -6 19 3
13 0 18 -12 16 -9 -2 -16 -4 -16 -5 0 -1 -15 -3 -33 -5 -23 -2 -30 0 -25 8 4
7 0 7 -10 -1 -9 -8 -22 -10 -29 -6 -20 13 -48 15 -48 4 0 -16 -24 -7 -37 15
-11 18 -12 18 -13 3 0 -10 -4 -18 -10 -18 -5 0 -7 8 -4 18 5 14 4 14 -4 3 -8
-12 -13 -12 -25 -2 -11 8 -17 9 -22 1 -3 -5 -17 -8 -31 -6 -13 3 -24 0 -24 -6
0 -5 7 -7 16 -4 14 5 15 4 5 -8 -7 -8 -9 -21 -5 -27 4 -8 3 -9 -4 -5 -7 4 -12
14 -12 22 0 8 -5 14 -11 14 -6 0 -8 -9 -4 -22 5 -20 4 -21 -5 -5 -9 14 -15 15
-32 6 -13 -7 -18 -7 -14 -1 3 6 2 13 -4 17 -6 4 -8 11 -5 16 3 5 -2 6 -11 2
-10 -4 -15 -2 -11 4 3 5 0 10 -8 10 -9 0 -11 -5 -7 -11 11 -14 9 -27 -6 -51
-9 -14 -15 -16 -18 -7 -3 6 -10 9 -15 6 -6 -3 -5 -12 3 -22 10 -14 10 -15 -2
-4 -24 21 -34 13 -14 -10 10 -13 12 -18 4 -12 -17 13 -48 10 -63 -5 -8 -8 -7
-11 3 -11 12 0 13 -2 1 -9 -16 -10 -51 -3 -51 11 0 5 -6 3 -13 -4 -15 -14 -19
-50 -5 -42 5 3 6 9 3 14 -3 4 3 7 12 5 10 -2 23 -4 28 -4 6 -1 3 -6 -5 -11
-12 -8 -12 -10 -1 -10 8 0 11 -3 8 -6 -4 -4 -14 -1 -24 7 -15 12 -16 12 -10
-4 5 -15 4 -16 -13 -7 -25 13 -27 13 -27 -5 0 -9 6 -14 13 -11 8 3 16 0 20 -7
4 -7 4 -9 -1 -5 -4 4 -15 3 -25 -2 -20 -11 -34 -2 -21 14 5 6 5 20 0 31 -7 18
-8 18 -8 2 -1 -11 -6 -15 -13 -11 -7 5 -8 3 -2 -7 4 -8 10 -22 11 -32 2 -14
-2 -16 -24 -11 -20 5 -24 4 -19 -7 4 -8 -4 -2 -17 13 -20 22 -26 24 -31 12 -3
-8 -2 -12 3 -9 5 3 12 1 16 -5 6 -9 -8 -15 -29 -11 -4 1 -14 -3 -21 -9 -9 -8
-15 -8 -20 0 -4 7 -17 3 -36 -10 -16 -12 -33 -19 -38 -15 -6 3 -15 -4 -21 -15
-10 -19 -10 -21 8 -11 11 6 22 7 26 4 3 -3 6 -2 6 4 0 5 7 10 15 10 8 0 15 -4
15 -9 0 -4 -7 -8 -15 -8 -8 0 -15 -5 -15 -11 0 -6 -9 -8 -22 -3 -20 6 -21 5
-9 -10 9 -10 10 -16 2 -16 -6 0 -11 5 -11 11 0 6 -7 8 -16 5 -10 -4 -13 -2 -8
6 4 6 3 8 -4 4 -5 -3 -12 -1 -14 6 -3 7 -7 5 -11 -6 -4 -9 -3 -15 2 -12 5 3
11 -1 15 -9 3 -8 0 -17 -6 -21 -7 -4 -8 -3 -4 4 4 7 2 12 -5 12 -7 0 -22 8
-33 17 -12 10 -16 11 -9 4 11 -13 10 -18 -14 -60 -2 -2 -11 2 -20 10 -17 13
-17 12 -4 -4 13 -16 12 -19 -7 -23 -25 -7 -26 -44 -1 -39 13 3 16 -1 12 -13
-4 -9 -8 -11 -10 -5 -2 6 -15 0 -29 -14 -24 -24 -25 -24 -52 -7 -22 14 -24 14
-14 2 9 -11 10 -18 2 -23 -5 -3 -10 -1 -10 4 0 6 -5 11 -11 11 -8 0 -9 -4 0
-13 6 -8 8 -17 4 -20 -9 -10 -25 -9 -19 1 3 5 -1 9 -9 9 -13 0 -13 -3 0 -17
14 -15 13 -18 -10 -30 -13 -7 -22 -16 -20 -20 7 -11 -20 -31 -29 -23 -4 4 -4
-1 0 -12 7 -18 6 -18 -9 -6 -11 9 -17 10 -17 2 0 -6 4 -11 8 -11 4 0 8 -9 9
-19 1 -14 -4 -19 -17 -16 -11 2 -19 -1 -17 -8 1 -7 -3 -11 -10 -10 -7 2 -10
-3 -7 -11 3 -8 0 -17 -5 -21 -6 -3 -9 -11 -6 -16 4 -5 -4 -13 -17 -18 -13 -6
-18 -10 -12 -10 12 -1 15 -31 3 -31 -4 0 -11 9 -14 21 -4 11 -9 18 -12 16 -2
-3 0 -14 6 -25 7 -13 7 -22 1 -24 -5 -2 -11 -15 -12 -30 -1 -15 -6 -24 -10
-22 -4 3 -8 2 -8 -3 0 -4 -14 -16 -31 -26 -28 -15 -30 -19 -18 -35 12 -15 12
-16 -2 -5 -9 7 -18 11 -21 8 -2 -3 -5 2 -5 10 0 8 4 12 8 9 4 -2 11 1 15 7 5
9 0 10 -16 6 -13 -3 -31 -1 -39 6 -14 10 -14 10 -4 -4 7 -9 9 -20 5 -24 -4 -5
-2 -5 4 -2 6 3 11 0 11 -8 0 -8 -4 -12 -8 -9 -4 2 -12 -4 -18 -13 -6 -11 -11
-13 -11 -5 0 7 -5 10 -10 7 -8 -5 -7 -12 2 -23 11 -15 11 -15 -2 -5 -12 9 -21
8 -40 -2 -14 -8 -19 -14 -11 -15 8 0 11 -3 8 -6 -4 -4 -13 -2 -20 4 -8 7 -18
8 -22 4 -5 -4 -5 -1 -1 6 4 7 12 9 18 6 7 -4 8 -2 4 4 -5 8 -1 10 11 5 15 -6
16 -5 3 9 -13 14 -16 14 -24 1 -7 -13 -10 -13 -17 -2 -5 9 -7 3 -5 -16 1 -18
7 -29 15 -27 7 1 10 -2 6 -8 -5 -8 -11 -8 -19 -1 -7 6 -16 8 -19 4 -4 -3 1
-12 11 -20 15 -11 13 -12 -11 -2 -26 12 -39 32 -16 27 6 -2 13 8 15 21 l4 25
-21 -25 c-11 -13 -28 -23 -37 -22 -10 1 -12 0 -4 -3 6 -3 10 -10 7 -14 -3 -5
0 -12 6 -16 8 -4 9 -3 5 4 -13 21 10 13 30 -10 15 -19 16 -20 2 -9 -15 11 -21
11 -35 0 -9 -8 -14 -9 -11 -4 3 6 0 15 -7 22 -10 10 -14 9 -19 -3 -3 -8 -1
-12 4 -9 6 3 9 -4 8 -18 -1 -16 -7 -24 -18 -22 -8 2 -19 4 -23 4 -5 1 -5 6 -2
11 3 6 1 10 -4 10 -15 0 -14 -11 5 -32 15 -16 15 -18 0 -24 -9 -3 -13 -11 -9
-17 3 -5 1 -7 -5 -3 -6 3 -13 2 -17 -3 -3 -5 2 -14 11 -19 15 -8 15 -10 0 -15
-10 -4 -15 -3 -11 3 3 6 2 10 -3 10 -16 0 -21 -12 -12 -30 7 -13 5 -16 -10
-15 -11 1 -23 5 -27 10 -5 4 -2 5 6 0 10 -6 12 -4 6 5 -5 9 -4 11 4 6 6 -4 10
-4 9 1 -1 4 3 18 10 30 9 17 9 22 -2 26 -9 4 -12 0 -9 -13 3 -10 -1 -21 -8
-26 -9 -5 -10 -2 -6 10 4 11 3 15 -4 11 -6 -4 -8 -13 -5 -21 3 -7 -7 -23 -22
-34 -21 -17 -22 -19 -5 -10 13 6 23 7 23 3 0 -14 -17 -35 -26 -33 -5 1 -9 -3
-11 -10 -1 -6 0 -7 4 0 2 5 9 7 14 4 6 -3 5 -11 -2 -20 -8 -10 -8 -14 0 -14 6
0 11 5 11 10 0 6 5 10 12 10 9 0 9 -3 0 -12 -10 -10 -8 -16 10 -31 21 -17 21
-17 2 -8 -12 6 -25 7 -29 3 -5 -4 -6 -2 -2 3 3 6 -4 12 -16 12 -15 2 -18 0 -8
-6 7 -5 9 -11 5 -13 -5 -3 -3 -3 4 -1 8 1 12 -3 9 -9 -2 -7 -11 -12 -20 -10
-8 1 -18 -2 -22 -8 -3 -5 0 -7 8 -4 8 3 20 -2 27 -10 10 -13 10 -17 -2 -21 -8
-3 -15 -12 -15 -20 0 -8 4 -12 9 -9 4 3 6 -5 4 -18 -3 -13 -5 -23 -6 -23 -1 0
-3 -10 -4 -22 -2 -16 1 -20 9 -13 7 5 15 7 18 3 4 -3 7 -1 7 5 0 7 -7 12 -16
12 -8 0 -12 5 -9 10 4 6 11 7 17 4 7 -5 8 -2 3 7 -15 23 -13 53 4 73 11 13 12
17 2 11 -10 -5 -12 -4 -7 3 11 19 25 14 23 -7 0 -11 -4 -18 -8 -15 -4 2 -6
-16 -6 -41 0 -25 4 -45 9 -45 5 0 6 -5 2 -12 -5 -8 -1 -9 12 -5 18 7 18 7 0
-8 -17 -13 -15 -19 5 -17 3 1 6 -5 6 -12 0 -8 -7 -13 -16 -11 -9 1 -16 7 -16
13 0 6 -6 17 -12 23 -10 10 -13 10 -13 1 0 -7 4 -12 8 -12 5 0 9 -6 9 -12 0
-7 4 -22 9 -32 6 -15 4 -17 -7 -11 -11 7 -11 5 1 -10 14 -17 13 -18 -5 -12
-20 7 -20 7 -1 -8 11 -8 26 -15 33 -15 7 0 13 -5 13 -11 0 -5 5 -7 11 -3 8 4
7 0 -1 -15 -10 -20 -9 -21 15 -17 15 3 23 1 19 -5 -3 -5 -2 -15 3 -22 11 -14
11 -27 -1 -45 -11 -18 -15 -63 -5 -57 4 3 15 -5 23 -17 9 -12 16 -17 16 -10 0
7 5 10 10 7 8 -5 7 -12 -2 -23 -7 -9 -8 -13 -3 -10 11 6 37 -17 29 -25 -10 -9
-11 -57 -2 -51 5 3 8 11 7 17 -3 25 1 38 10 32 6 -3 8 -14 6 -25 -2 -12 0 -18
5 -15 5 3 11 1 15 -5 3 -5 2 -10 -3 -10 -6 0 -13 -7 -16 -16 -6 -14 -4 -15 9
-4 13 11 19 11 32 -3 15 -15 15 -17 0 -23 -9 -3 -17 -11 -17 -16 0 -7 4 -7 13
0 6 6 16 10 20 10 5 0 12 4 15 8 4 4 0 4 -8 -1 -8 -5 -12 -5 -8 0 4 4 3 14 -2
20 -8 9 -6 14 4 18 11 4 13 1 9 -10 -5 -12 -3 -14 7 -8 8 5 11 4 6 -3 -3 -6 2
-16 11 -22 15 -10 15 -11 1 -6 -20 6 -34 -24 -16 -36 7 -4 9 -8 4 -8 -5 0 -4
-6 1 -12 6 -7 9 -22 7 -32 -1 -11 6 -32 17 -47 21 -30 26 -50 7 -31 -7 7 -16
12 -21 12 -5 0 2 -10 17 -21 15 -12 30 -19 33 -15 4 3 1 6 -7 6 -9 0 -10 3 -1
14 8 10 9 16 1 19 -6 3 -5 4 2 3 7 -2 12 -11 10 -21 -2 -12 1 -15 10 -9 11 6
11 5 0 -8 -9 -11 -10 -18 -2 -23 5 -3 10 0 10 7 0 10 3 9 9 -2 6 -8 7 -18 5
-22 -3 -4 -1 -8 5 -8 5 0 9 -8 8 -19 0 -10 -7 -18 -14 -17 -20 3 -28 16 -9 16
10 0 14 5 10 11 -4 7 -12 5 -23 -6 -12 -13 -13 -19 -4 -22 7 -2 15 -3 18 -1 3
2 14 -12 25 -30 19 -31 24 -33 60 -28 31 4 42 1 49 -12 8 -12 10 -13 11 -3 0
8 3 12 6 8 10 -10 -6 -26 -21 -21 -8 4 -12 10 -9 15 3 5 0 9 -6 9 -7 0 -9 -7
-6 -16 4 -10 2 -13 -6 -8 -7 4 -8 3 -4 -4 4 -6 14 -8 23 -5 11 5 14 3 8 -6 -6
-10 -3 -11 13 -2 12 6 25 18 30 27 7 12 10 11 20 -11 6 -14 17 -25 23 -25 8 0
8 4 -1 15 -11 13 -10 14 4 9 9 -3 16 -10 16 -16 0 -5 4 -7 9 -3 5 3 12 1 15
-4 4 -5 1 -13 -5 -17 -7 -4 -9 -3 -5 4 7 11 -12 11 -31 -1 -9 -5 -17 1 -24 17
-7 14 -16 23 -21 20 -5 -3 -5 -11 1 -18 8 -9 7 -13 -4 -13 -8 0 -11 5 -8 11 3
6 2 7 -2 3 -5 -4 -10 -15 -11 -24 -2 -11 0 -13 8 -5 8 8 15 7 25 -6 12 -16 12
-15 6 3 -6 17 -4 18 9 8 8 -7 18 -9 23 -5 4 4 4 -3 1 -15 -4 -12 -2 -24 3 -28
7 -4 8 1 4 11 -4 12 -3 15 5 10 8 -5 10 -1 5 10 -4 11 -3 15 5 10 6 -3 13 -2
17 3 4 7 14 6 30 -1 13 -6 22 -14 20 -18 -3 -4 3 -7 13 -6 9 0 16 -5 14 -12
-1 -8 2 -11 8 -7 6 4 5 12 -2 25 -7 10 -16 16 -22 13 -6 -4 -7 1 -2 13 5 15 4
16 -5 7 -6 -6 -17 -9 -25 -6 -10 4 -11 9 -1 24 6 10 16 19 21 19 4 0 3 -7 -4
-15 -20 -24 -6 -27 17 -5 18 16 22 17 27 4 9 -24 7 -31 -4 -14 -5 8 -10 11
-10 5 1 -5 7 -19 15 -29 8 -11 15 -14 15 -7 0 7 5 9 13 5 8 -5 8 -2 -2 9 -7 9
-10 17 -6 17 4 0 2 6 -4 14 -9 10 -8 16 4 26 9 7 18 10 22 7 3 -4 -2 -9 -11
-13 -9 -3 -13 -10 -10 -16 3 -5 17 1 32 14 14 13 22 17 18 11 -4 -7 -2 -13 3
-13 6 0 11 -4 11 -9 0 -6 -9 -8 -21 -6 -17 4 -19 2 -9 -10 8 -9 8 -15 2 -15
-6 0 -13 6 -15 13 -3 6 -6 8 -6 2 0 -5 4 -17 9 -25 9 -13 12 -13 20 2 6 10 19
15 31 13 17 -3 19 -2 9 10 -6 8 -8 20 -4 26 4 8 3 9 -4 5 -7 -4 -12 -3 -12 2
0 19 33 22 63 7 16 -8 31 -15 32 -15 1 0 2 15 3 32 0 18 6 34 12 36 6 2 18 11
27 20 16 16 16 16 10 -1 -6 -15 -3 -17 15 -11 20 6 21 5 9 -10 -10 -12 -17
-13 -27 -5 -14 11 -34 4 -34 -12 0 -6 5 -7 10 -4 5 3 10 2 10 -4 0 -5 -6 -11
-12 -14 -7 -3 -3 -4 8 -4 15 1 20 6 16 16 -3 8 -1 12 5 8 6 -4 18 2 28 13 10
11 21 17 26 15 18 -11 21 19 3 32 -18 13 -17 14 8 9 22 -4 28 -1 28 12 0 14 2
15 9 3 7 -10 4 -19 -7 -28 -9 -7 -13 -13 -8 -13 5 0 3 -7 -4 -15 -16 -20 -3
-19 17 0 8 8 19 13 24 10 5 -4 9 -1 9 5 0 6 5 8 10 5 6 -4 10 -3 9 2 -3 20 2
27 11 13 7 -11 10 -11 10 -2 0 7 4 11 9 8 5 -3 7 7 6 23 -2 23 1 28 14 23 14
-5 14 -4 1 14 -11 14 -11 16 0 7 11 -10 17 -10 31 3 15 14 18 13 33 -8 l17
-23 -3 25 c-2 14 -7 29 -13 33 -6 5 -4 7 5 4 8 -2 14 -10 12 -16 -1 -6 2 -10
7 -9 5 2 17 -6 26 -17 15 -19 16 -19 3 5 -7 14 -11 31 -9 39 1 7 -2 10 -8 6
-6 -3 -11 -1 -11 5 0 7 8 9 21 5 14 -5 19 -4 15 4 -5 7 -1 9 11 4 15 -5 16 -3
5 8 -6 7 -12 18 -12 23 0 6 5 3 11 -7 5 -9 15 -17 21 -17 7 0 7 4 -1 13 -13
17 -4 28 17 20 11 -5 13 -3 7 7 -5 9 -4 11 3 6 7 -4 12 -1 12 6 0 8 5 6 11 -5
6 -10 8 -21 5 -24 -3 -4 -6 -1 -6 6 0 7 -5 9 -10 6 -6 -4 -8 -11 -5 -16 3 -5
-2 -6 -12 -3 -15 5 -16 4 -3 -5 10 -7 11 -11 3 -11 -7 0 -22 -10 -34 -23 -12
-12 -18 -16 -14 -8 5 9 4 12 -3 7 -20 -12 -13 -23 14 -23 18 0 22 2 13 8 -14
8 -5 13 16 9 6 -1 7 2 3 6 -11 11 30 36 45 28 6 -4 9 -4 5 1 -4 4 -2 17 4 29
7 11 11 24 10 28 -1 4 5 5 14 1 9 -3 14 -1 12 7 -2 7 3 15 11 18 10 3 12 0 8
-12 -4 -10 -1 -16 9 -16 8 0 13 -4 9 -9 -3 -5 0 -13 7 -17 7 -4 10 -4 6 1 -4
4 -2 15 5 23 8 11 8 14 0 9 -6 -4 -15 -2 -19 4 -4 8 -3 9 4 5 7 -4 12 -3 12 1
0 5 7 18 16 29 14 18 14 18 3 -6 -9 -18 -9 -25 0 -28 9 -3 9 -8 -1 -20 -9 -11
-5 -10 14 3 29 21 44 45 28 45 -5 0 -14 -8 -19 -18 -9 -15 -10 -16 -11 0 0 21
36 34 54 19 7 -6 17 -7 21 -3 5 4 5 1 1 -5 -8 -15 10 -18 19 -3 3 6 -4 14 -17
19 -16 7 -18 10 -6 10 9 1 20 -4 23 -9 4 -6 11 -8 16 -5 5 4 9 1 9 -4 0 -6 -5
-11 -12 -11 -6 0 -1 -12 13 -27 21 -23 22 -25 4 -19 -16 6 -17 5 -8 -5 10 -10
15 -9 28 1 15 12 22 0 8 -14 -4 -3 -8 -14 -9 -22 -1 -9 1 -13 4 -9 4 4 7 10 7
13 1 17 17 31 30 26 8 -4 12 -11 8 -17 -3 -6 -1 -7 5 -3 38 24 75 9 51 -20
-12 -14 -14 -14 -26 2 -14 20 -18 7 -4 -15 6 -9 14 -10 27 -3 14 7 24 6 38 -3
18 -13 18 -14 -2 -12 -11 0 -18 6 -15 12 4 5 2 6 -3 2 -5 -5 -9 -12 -9 -15 0
-4 -3 -12 -7 -17 -4 -6 -3 -17 1 -24 6 -9 11 -10 15 -2 4 6 2 11 -4 11 -6 0
-8 5 -5 10 8 13 65 13 65 1 0 -6 -8 -8 -18 -6 -12 2 -18 -3 -19 -17 -2 -20 -1
-20 13 -2 15 18 15 18 10 -1 -3 -11 -1 -27 5 -35 8 -12 9 -9 4 10 l-6 25 15
-26 c20 -34 37 -40 61 -22 19 13 18 14 -12 8 -18 -3 -33 -2 -33 3 0 4 18 8 40
8 29 0 37 -3 30 -11 -6 -7 -7 -15 -3 -18 3 -4 12 1 20 11 12 16 13 15 6 -3 -6
-18 -5 -18 10 -6 11 9 17 10 17 2 0 -6 -5 -11 -11 -11 -5 0 -7 -6 -3 -12 5 -9
2 -9 -9 1 -11 9 -17 10 -17 2 0 -6 5 -11 11 -11 5 0 7 -6 3 -12 -5 -8 -1 -7
10 2 10 8 28 15 39 16 12 2 16 0 9 -2 -6 -3 -9 -11 -6 -16 4 -6 3 -8 -3 -5 -6
4 -19 0 -29 -8 -10 -8 -14 -15 -9 -15 6 0 16 5 22 11 8 8 15 4 27 -12 9 -13
16 -19 17 -14 1 6 5 -1 9 -15 l8 -25 1 24 c1 24 1 24 23 5 12 -10 18 -13 14
-6 -4 6 -2 12 3 12 11 0 15 -19 12 -50 -1 -9 1 -11 6 -5 11 13 33 17 33 6 0
-5 -3 -11 -7 -14 -5 -2 -2 -2 4 -1 15 4 35 -30 25 -41 -4 -4 3 -2 16 4 13 7
21 18 18 26 -2 7 1 16 8 18 13 5 15 -20 3 -39 -8 -13 41 -13 63 0 8 5 12 6 8
1 -4 -4 -2 -15 5 -23 9 -12 9 -14 0 -9 -8 5 -11 1 -8 -14 5 -25 15 -38 15 -20
0 7 5 9 10 6 6 -4 7 -11 4 -17 -5 -7 -2 -8 6 -3 10 6 12 4 7 -9 -5 -12 -3 -15
5 -10 7 4 24 9 38 10 14 1 19 0 12 -3 -10 -4 -8 -9 5 -19 17 -13 17 -14 -2 -7
-17 6 -18 5 -7 -10 8 -9 21 -13 30 -10 13 4 12 2 -3 -10 -18 -15 -18 -16 -2
-17 15 0 22 -12 15 -24 -2 -2 5 -13 16 -25 10 -11 16 -27 13 -35 -7 -17 9 -32
38 -38 17 -3 15 -5 -7 -10 -17 -3 -25 -1 -21 5 4 6 1 7 -7 2 -9 -6 -11 -4 -5
6 7 12 6 12 -6 0 -11 -10 -11 -15 -1 -18 6 -3 9 -10 6 -15 -4 -7 -2 -8 5 -4 6
4 14 1 17 -8 3 -8 13 -17 22 -21 13 -5 13 -2 -3 15 -10 11 -16 20 -14 21 2 0
12 2 22 4 9 2 15 -1 12 -5 -3 -5 -1 -11 4 -15 17 -10 0 -36 -19 -30 -11 3 -20
-1 -24 -11 -5 -14 -4 -15 9 -4 14 12 19 7 16 -13 -1 -5 3 -6 8 -3 5 4 26 -4
47 -16 21 -12 34 -17 30 -10 -4 7 -1 12 9 12 9 0 14 4 10 9 -3 5 -1 12 4 15 5
4 12 2 15 -3 4 -5 2 -12 -4 -16 -5 -3 -15 -16 -21 -28 -11 -20 -9 -20 12 3 21
22 24 22 27 6 2 -10 9 -15 18 -12 7 3 16 1 19 -5 4 -5 11 -7 16 -4 5 4 9 1 9
-6 0 -7 3 -10 6 -7 3 4 0 16 -6 28 -10 18 -14 20 -21 9 -6 -10 -8 -8 -6 8 1
18 4 20 17 10 8 -7 20 -19 26 -26 10 -13 15 -13 38 2 27 18 35 11 14 -12 -9
-9 -9 -12 -1 -7 6 3 13 3 16 -1 2 -5 3 -3 1 3 -1 6 7 16 17 22 12 8 19 8 19 2
0 -5 5 -10 10 -10 6 0 5 8 -2 20 -7 11 -16 20 -21 20 -4 0 -6 -4 -3 -8 3 -5
-1 -9 -9 -9 -8 0 -15 5 -15 10 0 6 -8 3 -18 -6 -22 -20 -55 -6 -34 15 8 7 12
9 10 3 -2 -5 2 -10 7 -10 6 0 9 3 8 7 -2 4 7 5 18 3 11 -2 27 -1 35 2 13 5 13
8 2 15 -10 8 -9 9 4 5 9 -3 19 1 22 9 6 17 26 10 26 -9 0 -7 -4 -6 -11 3 -8
12 -9 11 -7 -5 2 -13 -2 -19 -11 -17 -12 3 -12 0 -1 -12 16 -21 32 -20 28 0
-2 10 3 19 11 22 9 3 11 0 6 -8 -5 -9 -4 -11 4 -6 6 4 9 12 6 17 -4 5 1 9 10
9 10 0 13 -5 9 -12 -4 -7 -3 -8 5 -4 17 11 2 29 -19 23 -13 -3 -17 0 -13 9 3
8 9 11 14 8 5 -3 6 3 2 12 -6 16 -7 15 -20 -2 -7 -10 -13 -13 -13 -7 0 6 6 16
14 22 12 10 18 7 31 -13 10 -14 22 -26 29 -25 7 0 6 2 -1 6 -7 2 -13 9 -13 14
0 6 6 7 13 3 9 -6 9 -4 -1 8 -9 11 -10 18 -2 23 5 3 10 1 10 -4 0 -6 5 -11 11
-11 8 0 8 5 -1 15 -7 8 -16 12 -21 10 -4 -3 -6 4 -4 16 3 15 0 19 -10 15 -13
-4 -12 -1 1 19 9 14 20 23 24 20 4 -3 10 4 13 16 3 12 0 22 -9 26 -12 4 -12 8
3 18 15 11 16 15 3 31 -14 17 -13 18 1 7 9 -7 19 -9 24 -5 4 4 2 -4 -5 -17 -8
-15 -8 -21 -1 -17 6 4 11 2 11 -3 0 -6 -4 -11 -9 -11 -5 0 -8 -8 -6 -17 1 -10
0 -22 -4 -28 -9 -16 -10 -35 -1 -40 5 -3 7 3 5 14 -2 11 3 25 11 31 7 7 11 17
8 22 -4 5 3 23 15 38 12 17 18 36 15 45 -5 12 -9 13 -14 5 -5 -9 -9 -9 -14 -1
-4 6 7 19 26 31 34 21 32 28 -3 10 -12 -7 -19 -7 -19 -1 0 6 9 15 20 21 15 8
19 17 14 32 -5 17 -3 20 10 15 14 -5 15 -3 6 13 -14 25 -13 30 4 24 10 -4 14
1 13 14 0 12 -5 18 -9 16 -5 -3 -6 -9 -3 -14 3 -5 -4 -7 -15 -5 -17 3 -19 1
-10 -15 9 -16 8 -18 -5 -14 -9 4 -13 9 -11 12 3 3 1 11 -4 17 -8 9 -4 12 12
11 19 -1 23 4 20 24 -1 14 1 20 5 14 5 -6 17 -14 27 -18 20 -7 20 -6 1 14 -19
20 -19 21 1 14 17 -7 17 -6 5 9 -7 9 -17 15 -21 12 -5 -3 -11 -1 -14 4 -7 11
13 9 33 -3 10 -7 12 -3 6 15 -4 16 -3 20 3 11 8 -11 10 -11 15 2 3 8 1 17 -6
20 -7 2 -4 5 6 5 20 1 23 17 5 24 -7 3 -3 4 9 4 18 -1 20 -4 11 -20 -8 -15 -7
-18 4 -12 7 4 3 -2 -10 -14 -12 -12 -20 -26 -17 -32 4 -5 2 -9 -3 -9 -13 0
-10 -28 4 -34 7 -3 10 2 7 14 -3 13 3 21 24 29 l28 11 -29 -6 c-26 -5 -28 -3
-17 10 7 9 17 14 21 11 4 -2 6 6 5 18 0 12 3 30 8 41 7 14 6 17 -5 11 -7 -5
-10 -5 -6 0 4 4 0 14 -10 22 -15 12 -14 13 8 2 14 -7 31 -19 38 -28 11 -14 12
-13 2 6 -8 18 -7 24 9 32 10 6 21 18 25 28 6 16 5 16 -8 -1 -9 -10 -20 -15
-27 -10 -8 5 -10 3 -4 -6 6 -9 4 -11 -5 -5 -9 6 -11 4 -5 -6 7 -12 5 -12 -6
-1 -12 11 -12 14 1 22 8 5 17 7 21 4 4 -2 10 5 14 16 4 11 11 18 16 15 5 -4
12 1 15 9 3 9 11 13 18 9 6 -3 8 -3 4 2 -4 4 -3 14 3 22 6 7 8 13 3 13 -5 0
-2 4 6 10 8 5 11 12 7 17 -9 8 -28 -17 -21 -28 4 -8 -34 -39 -48 -39 -13 0 -9
27 7 40 8 6 13 17 12 23 -1 6 7 12 18 13 11 1 29 5 39 10 14 5 17 4 12 -4 -5
-8 -2 -10 9 -5 9 3 13 9 8 12 -16 12 -12 30 7 36 11 4 17 11 14 17 -5 8 -1 9
11 4 16 -6 16 -4 4 10 -8 10 -13 20 -12 23 1 3 -1 8 -4 11 -4 3 -3 -1 1 -7 4
-7 2 -13 -3 -13 -6 0 -10 -3 -10 -7 3 -20 -2 -33 -12 -33 -8 0 -7 6 2 17 12
14 12 16 -1 11 -9 -3 -15 -16 -14 -31 1 -15 -2 -24 -7 -22 -4 3 -10 -1 -12 -7
-4 -9 -6 -10 -6 -1 -1 6 3 14 9 18 5 3 7 12 4 19 -3 8 5 21 18 30 15 11 18 16
8 17 -10 0 -8 3 5 8 24 10 58 -5 49 -21 -5 -7 -2 -8 5 -3 9 5 10 10 2 18 -6 6
-11 16 -11 21 1 6 10 0 20 -13 11 -13 20 -19 20 -14 0 19 -36 39 -65 37 -29
-3 -29 -2 -7 10 12 6 19 16 15 21 -4 4 -2 5 5 1 7 -4 10 -11 8 -15 -3 -3 4 -7
14 -7 10 0 16 4 13 9 -3 5 5 6 18 3 23 -7 23 -6 4 6 -37 24 -29 44 15 38 8 -1
13 0 10 2 -3 2 -14 10 -24 18 -13 10 -17 11 -12 2 5 -8 3 -11 -6 -10 -8 2 -13
-7 -12 -25 1 -26 0 -27 -17 -11 -11 10 -19 22 -19 28 0 6 5 4 10 -4 9 -13 10
-13 11 0 1 8 1 19 0 23 -1 5 2 6 6 4 5 -3 14 1 21 9 12 13 8 18 -11 15 -5 -1
-5 4 -1 10 5 9 12 6 23 -8 15 -18 56 -29 46 -12 -8 12 7 39 18 32 6 -4 7 -1 2
7 -6 10 -11 10 -20 -3 -7 -9 -15 -14 -18 -10 -4 3 -3 11 2 17 18 24 19 45 2
65 -10 11 -21 18 -25 16 -3 -3 -4 -2 -1 2 8 10 36 13 30 2 -4 -5 1 -6 10 -3
20 8 6 24 -24 27 -26 2 -27 9 -1 24 14 9 21 10 26 1 5 -7 3 -8 -6 -3 -8 5 -11
4 -6 -3 4 -6 14 -8 23 -5 12 5 14 3 8 -7 -6 -9 -4 -11 5 -5 20 12 -27 47 -53
39 -13 -4 -17 -2 -13 5 4 6 14 11 22 11 20 0 18 18 -3 23 -17 4 -17 5 0 6 10
0 15 6 12 11 -4 6 -12 7 -18 4 -7 -4 -9 -4 -5 1 4 4 2 15 -5 24 -10 14 -10 14
4 4 9 -7 20 -9 24 -5 5 4 5 2 2 -4 -4 -7 5 -20 21 -29 l27 -18 -20 24 c-11 13
-26 30 -35 38 -13 12 -13 13 2 8 10 -3 20 -1 24 5 4 7 3 8 -4 4 -7 -4 -12 -1
-12 8 0 19 11 20 30 4 8 -7 6 -3 -4 10 -19 22 -19 22 0 23 16 0 16 2 3 7 -9 4
-15 15 -13 25 1 9 -2 15 -7 11 -12 -7 -11 3 1 27 6 11 7 19 3 18 -16 -2 -53
14 -53 23 0 5 3 7 8 5 4 -3 16 -1 27 4 18 7 17 8 -5 6 -14 -1 -31 -6 -39 -11
-10 -7 -12 -6 -6 4 6 10 3 12 -11 7 -17 -6 -17 -6 -3 6 15 11 15 15 3 32 -10
14 -11 22 -2 32 8 10 8 17 -2 26 -9 9 -11 9 -6 0 3 -6 2 -14 -3 -17 -5 -4 -8
2 -6 11 2 10 4 22 4 27 1 5 7 3 15 -3 10 -8 16 -9 21 -1 4 6 1 9 -7 8 -8 -2
-12 5 -10 17 l4 20 -16 -20 c-15 -19 -17 -19 -26 -3 -6 9 -16 16 -23 14 -6 -1
-9 -1 -4 1 14 8 7 21 -15 26 -12 4 -19 9 -16 12 3 4 16 2 27 -5 14 -7 21 -7
21 0 0 5 -7 10 -16 10 -8 0 -12 5 -9 11 4 6 14 8 24 5 12 -5 12 -3 -3 9 -21
16 -40 11 -30 -8 4 -7 4 -9 -1 -5 -4 4 -15 2 -24 -5 -9 -7 -7 0 6 18 14 21 18
36 12 50 l-8 20 -1 -20 c-2 -11 -2 -23 -2 -27 1 -3 -5 -11 -13 -18 -12 -10
-13 -7 -9 17 2 15 6 33 9 40 2 8 -2 10 -12 6 -11 -4 -14 -2 -9 5 4 6 0 24 -9
39 -9 16 -14 20 -11 11 3 -12 1 -15 -10 -11 -7 3 -14 0 -14 -6 0 -6 3 -10 8
-10 24 4 33 -3 27 -21 -4 -11 -2 -20 4 -20 6 0 11 -5 11 -11 0 -17 -16 -1 -48
46 -16 24 -33 41 -36 37 -4 -4 -6 0 -4 8 2 8 -2 14 -9 13 -7 -2 -10 4 -6 13 5
13 8 13 15 2 8 -10 9 -10 5 2 -2 8 -10 15 -18 15 -20 1 -39 14 -38 28 0 9 2 8
6 -1 2 -6 10 -9 15 -6 7 5 8 2 3 -6 -6 -9 -4 -11 5 -5 10 6 9 11 -6 22 -22 16
-40 12 -36 -10 1 -8 -1 -18 -6 -21 -5 -3 -8 6 -6 20 2 21 -1 25 -17 21 -10 -3
-17 -1 -13 4 3 5 12 9 20 9 8 0 14 5 14 10 0 6 5 10 11 10 5 0 7 -4 4 -10 -3
-5 -1 -10 4 -10 16 0 13 20 -3 26 -8 3 -12 13 -9 22 3 12 2 13 -4 5 -5 -7 -14
-9 -22 -4 -10 7 -8 10 8 16 13 4 20 9 18 12 -3 2 -15 -1 -27 -7 -27 -14 -70
-5 -70 15 0 21 -20 19 -21 -2 0 -15 -2 -15 -8 2 -9 22 7 57 22 48 5 -3 3 -9
-4 -14 -12 -7 -11 -9 1 -10 8 -1 18 -1 22 0 4 0 5 -7 2 -17 -5 -15 -4 -15 6
-2 10 13 11 13 6 -2 -3 -10 -1 -18 4 -18 6 0 10 5 10 11 0 5 4 8 8 5 5 -3 9 1
9 9 0 8 -4 12 -9 8 -6 -3 -22 7 -37 22 -26 24 -30 25 -44 11 -9 -9 -22 -16
-29 -16 -10 0 -10 2 1 9 11 7 10 10 -3 18 -10 5 -18 16 -19 24 -3 21 -22 17
-21 -4 1 -10 -1 -15 -4 -12 -13 12 -10 64 4 69 7 3 13 0 11 -6 -1 -6 8 -11 20
-13 20 -1 19 1 -9 26 -17 17 -27 33 -22 40 4 7 3 9 -4 5 -6 -4 -11 1 -12 11
-1 45 -5 63 -12 63 -4 0 -8 -6 -9 -12 0 -7 -2 -23 -5 -35 -2 -15 3 -26 15 -32
23 -13 35 -40 16 -37 -8 1 -18 6 -22 11 -4 4 -2 5 5 1 6 -4 12 -2 12 3 0 12
-26 15 -33 4 -2 -5 -2 -2 -1 5 5 20 -7 42 -20 35 -7 -4 -6 -1 2 9 10 12 10 18
-2 27 -8 7 -13 18 -12 25 3 23 27 46 40 39 6 -3 7 -2 3 3 -5 5 -12 9 -15 10
-21 3 -42 18 -42 31 0 8 -5 11 -10 8 -6 -4 -2 -18 10 -36 12 -16 17 -29 11
-29 -6 0 -11 5 -11 10 0 7 -7 7 -22 0 -21 -10 -21 -10 -5 3 9 8 17 17 17 20 0
4 -8 4 -17 1 -14 -5 -15 -4 -4 4 11 8 11 10 0 15 -10 4 -10 6 -1 6 6 1 12 8
12 17 0 8 5 12 10 9 6 -3 10 -1 10 4 0 16 -16 13 -30 -4 -7 -8 -20 -14 -29
-14 -15 1 -15 2 0 6 17 4 44 52 34 61 -3 3 -5 1 -5 -4 0 -6 -7 -19 -15 -30
-15 -19 -15 -19 -9 1 6 20 5 20 -10 1 -9 -11 -16 -15 -16 -9 0 14 25 34 33 26
4 -3 7 -1 7 6 0 8 -6 11 -15 7 -46 -18 -50 -19 -30 -3 16 12 17 18 8 28 -10
10 -9 15 5 26 16 12 16 13 -1 7 -13 -5 -16 -2 -11 12 5 18 5 18 -10 0 -11 -13
-12 -23 -6 -31 5 -7 6 -16 2 -20 -4 -5 0 -5 8 0 8 5 12 4 7 0 -10 -12 -39 -16
-32 -5 3 5 -3 11 -12 13 -17 4 -17 5 0 6 10 0 15 6 12 11 -4 6 -10 8 -14 6 -4
-3 -8 4 -8 15 -1 10 3 19 8 19 6 0 8 -4 4 -9 -3 -5 0 -13 7 -17 7 -4 10 -3 5
1 -4 5 1 18 10 29 10 12 14 18 9 13 -5 -4 -18 0 -28 10 -17 16 -17 17 -1 37
l18 21 -23 -19 c-30 -26 -74 -31 -70 -8 2 10 -3 16 -10 14 -8 -1 -11 2 -8 7 4
5 2 13 -4 16 -8 5 -6 15 5 32 10 14 13 23 8 20 -12 -8 -54 38 -45 49 4 5 -1 2
-10 -5 -20 -15 -24 -26 -6 -15 7 5 8 3 3 -6 -5 -9 -4 -11 3 -6 8 5 10 1 5 -10
-4 -12 -8 -14 -11 -5 -3 8 -8 7 -17 -5 -11 -16 -12 -15 -10 9 2 15 -1 29 -5
32 -5 3 -7 12 -4 20 3 7 -4 23 -15 34 -12 12 -21 17 -21 13z m-40 -82 c0 -5
-2 -10 -4 -10 -3 0 -8 5 -11 10 -3 6 -1 10 4 10 6 0 11 -4 11 -10z m-700 -28
c7 2 15 -3 18 -11 3 -10 0 -12 -11 -8 -9 3 -18 1 -21 -6 -2 -7 -5 -4 -5 6 -1
9 -6 17 -12 17 -5 0 -7 -5 -3 -12 5 -7 3 -8 -7 -2 -21 13 -39 14 -39 1 0 -5
-3 -7 -7 -4 -3 4 2 16 11 26 17 18 20 19 41 5 12 -8 28 -13 35 -12z m855 -10
c-3 -3 -12 -7 -21 -8 -11 -2 -12 1 -5 10 6 7 7 17 3 22 -4 4 1 2 11 -5 9 -8
15 -16 12 -19z m-1055 -1 c0 -10 -7 -22 -16 -25 -14 -5 -15 -4 -5 8 7 8 10 20
6 26 -3 5 -1 10 4 10 6 0 11 -9 11 -19z m304 0 c13 -11 16 -11 16 0 0 8 6 5
15 -7 10 -12 14 -14 13 -4 -2 8 5 14 17 15 11 0 26 4 33 8 7 5 12 3 12 -6 0
-8 7 -20 15 -27 12 -10 15 -10 15 0 0 8 6 9 18 5 9 -4 22 -8 29 -8 6 0 9 -6 6
-13 -6 -17 16 -29 30 -15 26 26 32 4 9 -34 -6 -11 -12 -15 -12 -9 0 5 5 15 12
22 9 9 4 11 -21 7 -18 -2 -30 -1 -27 2 7 8 -36 31 -47 25 -5 -2 -1 -9 8 -16
15 -10 14 -12 -3 -12 -14 0 -19 6 -17 18 2 10 0 20 -6 23 -5 4 -9 -2 -10 -12
0 -15 -2 -14 -9 3 -12 29 -29 39 -36 20 -7 -19 -38 -16 -64 7 -11 9 -20 13
-20 8 0 -5 -11 -8 -25 -8 -14 0 -25 4 -25 9 0 5 4 7 9 3 5 -3 12 -1 15 4 8 12
30 8 50 -8z m16 -47 c0 -2 -9 0 -20 6 -11 6 -20 13 -20 16 0 2 9 0 20 -6 11
-6 20 -13 20 -16z m280 -19 c11 -13 10 -14 -4 -9 -9 3 -16 10 -16 15 0 13 6
11 20 -6z m-700 -9 c0 -3 -4 -8 -10 -11 -5 -3 -10 -1 -10 4 0 6 5 11 10 11 6
0 10 -2 10 -4z m1257 -39 c18 -20 18 -20 -14 -3 -23 11 -33 13 -33 5 0 -7 -3
-10 -6 -6 -9 9 3 24 21 24 8 0 23 -9 32 -20z m-542 -48 c1 -11 -3 -23 -9 -26
-6 -3 -8 -2 -3 2 4 5 -1 17 -10 27 -16 18 -16 18 2 12 14 -6 16 -4 10 7 -4 8
-4 11 0 6 5 -4 9 -17 10 -28z m-935 -39 c0 -5 -8 -10 -17 -10 -15 0 -16 2 -3
10 19 12 20 12 20 0z m-76 -41 c-8 -14 -21 -10 -28 7 -10 25 5 40 20 19 7 -10
11 -22 8 -26z m39 21 c4 -17 2 -18 -14 -9 -11 5 -17 14 -14 20 10 15 22 10 28
-11z m72 10 c-3 -5 -12 -10 -18 -10 -7 0 -6 4 3 10 19 12 23 12 15 0z m-275
-100 c0 -5 -13 -17 -30 -26 -18 -11 -25 -21 -19 -25 6 -3 -1 -6 -16 -6 l-27 0
30 19 c17 11 34 28 37 39 6 18 25 18 25 -1z m13 -25 c-3 -9 -8 -14 -10 -11 -3
3 -2 9 2 15 9 16 15 13 8 -4z m1907 -99 c0 -3 -4 -8 -10 -11 -5 -3 -10 -1 -10
4 0 6 5 11 10 11 6 0 10 -2 10 -4z m-2063 -36 c-2 -23 -17 -27 -17 -4 0 8 -5
12 -11 9 -6 -4 -8 -13 -5 -21 3 -8 2 -13 -2 -12 -16 3 -42 -15 -42 -30 0 -13
2 -13 18 1 10 10 23 17 28 17 4 0 -2 -7 -14 -16 -12 -8 -19 -21 -16 -27 5 -8
3 -8 -7 1 -21 19 -31 14 -19 -10 11 -22 10 -22 -4 -4 -14 17 -16 18 -16 3 0
-9 -5 -17 -11 -17 -5 0 -8 -4 -4 -10 3 -5 13 -7 23 -4 14 5 14 4 2 -4 -10 -8
-18 -8 -27 0 -15 12 8 48 76 120 37 39 51 41 48 8z m-120 -155 c4 -4 2 -5 -4
-1 -7 4 -13 2 -13 -4 0 -6 -4 -9 -9 -6 -5 3 -15 -2 -22 -11 -12 -14 -11 -15 9
-9 14 5 22 3 22 -4 0 -6 -4 -8 -10 -5 -5 3 -10 -2 -10 -12 0 -14 -2 -15 -9 -4
-5 8 -11 9 -15 3 -4 -6 1 -15 10 -20 15 -8 15 -10 0 -15 -10 -4 -15 -3 -11 3
3 6 -1 10 -11 10 -12 0 -14 3 -6 13 6 6 10 16 10 20 0 5 8 19 18 32 17 23 36
27 51 10z m2378 -68 c13 -11 15 -16 6 -22 -7 -4 -18 -2 -24 4 -6 6 -7 11 -1
11 5 0 2 5 -6 10 -8 5 -10 10 -4 10 5 0 18 -6 29 -13z m-2455 -31 c0 -8 -9
-17 -19 -21 -13 -4 -18 -12 -15 -23 5 -14 4 -15 -5 -2 -8 11 -6 18 7 28 9 7
16 18 15 23 -2 5 2 9 7 9 6 0 10 -6 10 -14z m0 -36 c0 -5 -5 -10 -11 -10 -5 0
-7 5 -4 10 3 6 8 10 11 10 2 0 4 -4 4 -10z m2555 -100 c3 -5 1 -10 -4 -10 -6
0 -11 5 -11 10 0 6 2 10 4 10 3 0 8 -4 11 -10z m23 -45 c-3 -3 -9 2 -12 12 -6
14 -5 15 5 6 7 -7 10 -15 7 -18z m129 -151 c-3 -3 -12 -4 -19 -1 -8 3 -5 6 6
6 11 1 17 -2 13 -5z m-3197 -132 c0 -1 -8 2 -19 7 -10 6 -21 7 -25 3 -4 -3 -4
1 -1 10 6 15 8 15 26 0 10 -9 19 -18 19 -20z m3306 -45 c4 -4 2 -13 -5 -21 -9
-11 -8 -15 3 -19 8 -3 13 -14 11 -24 -2 -10 -4 -21 -4 -25 -1 -11 -29 -10 -36
2 -3 6 1 7 10 4 11 -5 14 -2 9 10 -3 9 -11 13 -17 9 -6 -3 -7 -1 -3 6 4 6 13
9 19 5 7 -3 3 2 -7 10 -11 9 -17 19 -13 22 4 4 2 12 -3 19 -7 8 -4 11 10 10
11 -1 23 -4 26 -8z m-3337 -20 c-2 -1 -13 -9 -24 -17 -19 -14 -19 -14 -6 3 7
9 18 17 24 17 6 0 8 -1 6 -3z m18 -112 c0 -8 -4 -15 -9 -15 -10 0 -11 14 -1
23 9 10 10 9 10 -8z m3 -115 c0 -5 -5 -10 -11 -10 -5 0 -8 -4 -4 -9 3 -5 1
-12 -4 -15 -5 -4 -8 2 -6 11 2 10 4 21 4 26 1 11 21 8 21 -3z m14 -36 c3 -8 2
-12 -4 -9 -6 3 -10 10 -10 16 0 14 7 11 14 -7z m3286 -49 c5 3 12 0 16 -6 5
-8 3 -9 -6 -4 -9 5 -10 2 -6 -13 4 -11 2 -23 -4 -27 -8 -5 -8 -11 1 -21 6 -8
10 -17 7 -19 -2 -3 -14 8 -26 25 -15 20 -18 31 -10 36 6 4 8 3 4 -4 -3 -6 -2
-13 3 -16 5 -3 11 1 15 9 3 8 1 17 -4 20 -6 4 -10 14 -9 23 0 11 2 12 6 4 2
-6 9 -10 13 -7z m-3237 -107 c-4 -23 -4 -23 12 -3 l17 20 -4 -20 c-2 -11 2
-19 7 -18 6 1 11 -7 11 -17 0 -14 -3 -16 -13 -8 -7 6 -13 7 -13 2 0 -5 -9 2
-20 16 -13 18 -16 28 -8 37 15 18 17 16 11 -9z m69 -67 c-11 -7 -10 -9 3 -15
9 -3 14 -10 11 -15 -3 -5 1 -11 9 -15 9 -3 12 -12 9 -23 -5 -16 -4 -16 8 -3
12 14 15 14 31 -2 19 -20 9 -25 -12 -5 -11 10 -13 9 -8 -5 3 -10 1 -20 -6 -24
-7 -4 -9 -4 -5 1 4 4 -3 16 -15 26 -12 10 -16 18 -10 19 7 0 -1 13 -18 29 -20
20 -26 31 -17 34 21 9 34 7 20 -2z m3008 -136 c0 -8 -4 -15 -10 -15 -5 0 -7 7
-4 15 4 8 8 15 10 15 2 0 4 -7 4 -15z m-1552 -43 c-11 -13 -10 -15 10 -9 13 3
21 3 18 0 -3 -4 0 -13 7 -21 10 -13 9 -14 -10 -3 -13 6 -23 8 -23 4 0 -4 -6 1
-12 11 -8 15 -8 21 0 24 7 2 9 9 6 14 -4 7 -2 8 5 4 9 -6 9 -11 -1 -24z
m-1354 -4 c-3 -4 -1 -8 5 -8 5 0 12 6 14 13 3 6 4 -1 2 -18 -1 -16 0 -34 3
-40 4 -5 7 -16 7 -24 0 -8 5 -16 12 -18 7 -3 10 3 6 15 -2 11 -1 22 4 25 5 3
8 -6 7 -20 0 -17 -8 -29 -22 -34 -16 -6 -20 -5 -15 7 3 9 0 14 -8 12 -9 -2
-14 6 -15 22 -1 14 -3 28 -4 33 -1 4 -3 10 -4 15 -1 4 -4 12 -8 18 -4 6 -1 11
7 11 8 0 12 -4 9 -9z m1426 -32 c0 -3 -4 -8 -10 -11 -5 -3 -10 -1 -10 4 0 6 5
11 10 11 6 0 10 -2 10 -4z m1420 -44 c0 -5 -7 -9 -15 -9 -8 0 -12 4 -9 9 3 4
9 8 15 8 5 0 9 -4 9 -8z m-1289 -92 c5 0 9 -4 9 -8 0 -5 -7 -9 -15 -9 -8 0
-12 4 -9 9 3 4 1 8 -5 8 -6 0 -7 8 -3 18 6 16 7 16 10 0 2 -10 8 -18 13 -18z
m-734 8 c0 -7 2 -18 4 -24 2 -7 0 -13 -6 -14 -5 -1 -21 -11 -34 -21 -13 -11
-29 -19 -35 -19 -6 1 0 7 14 15 14 8 20 14 13 15 -13 0 -12 25 2 37 4 4 5 3 1
-4 -4 -8 1 -11 14 -10 11 1 18 7 16 13 -3 7 -2 15 1 18 9 8 10 8 10 -6z m761
-13 c-3 -3 -9 2 -12 12 -6 14 -5 15 5 6 7 -7 10 -15 7 -18z m-884 -58 c14 -10
15 -14 4 -14 -7 0 -19 6 -26 14 -7 7 -9 13 -4 13 4 0 16 -6 26 -13z m-580 -39
c-6 -20 -5 -21 10 -9 9 8 19 11 23 7 3 -3 1 -6 -6 -6 -7 0 -10 -4 -7 -9 4 -5
-1 -8 -10 -7 -29 4 -41 46 -13 46 6 0 7 -9 3 -22z m1606 -5 c0 -15 2 -16 10
-3 7 11 10 11 10 2 0 -7 4 -11 8 -8 5 3 9 -1 9 -9 0 -11 -4 -12 -14 -4 -7 6
-13 8 -13 5 0 -4 -9 -2 -20 4 -11 6 -18 15 -15 21 10 15 25 10 25 -8z m-1151
0 c-3 -20 2 -27 11 -13 7 12 9 10 7 -7 -1 -20 -3 -21 -17 -8 -9 8 -23 15 -31
16 -8 0 -6 4 6 9 26 11 25 11 24 3z m1226 -13 c-3 -5 -12 -10 -18 -10 -7 0 -6
4 3 10 19 12 23 12 15 0z m45 -30 c0 -5 -5 -10 -12 -10 -18 0 0 -13 23 -17 11
-2 18 0 15 5 -2 4 4 8 15 8 19 0 19 -1 -2 -17 -14 -10 -20 -22 -16 -33 11 -27
-8 -18 -27 14 -9 17 -21 28 -26 25 -5 -3 -11 -1 -15 5 -3 5 1 10 9 10 9 0 16
5 16 10 0 6 5 10 10 10 6 0 10 -4 10 -10z m-1500 -20 c0 -5 -2 -10 -4 -10 -3
0 -8 5 -11 10 -3 6 -1 10 4 10 6 0 11 -4 11 -10z m1571 -43 c-10 -9 -11 -8 -5
6 3 10 9 15 12 12 3 -3 0 -11 -7 -18z m760 -3 c2 2 5 -6 5 -19 1 -13 -5 -26
-13 -29 -12 -5 -14 -1 -9 19 4 14 2 25 -4 25 -5 0 -10 5 -10 11 0 8 4 9 13 0
8 -6 16 -9 18 -7z m-731 -12 c0 -4 -10 -9 -22 -9 -18 -2 -20 0 -8 7 18 12 30
13 30 2z m700 -12 c0 -5 -2 -10 -4 -10 -3 0 -8 5 -11 10 -3 6 -1 10 4 10 6 0
11 -4 11 -10z m-648 -18 c-4 -11 -2 -13 9 -7 12 7 12 6 1 -7 -11 -14 -10 -18
6 -27 11 -6 23 -7 27 -3 5 4 5 1 1 -6 -8 -13 -39 -2 -51 18 -4 6 -12 7 -18 3
-7 -4 -7 0 1 10 8 9 11 20 8 25 -3 5 1 9 8 9 8 0 12 -7 8 -15z m623 -1 c3 -5
2 -12 -3 -15 -5 -3 -9 1 -9 9 0 17 3 19 12 6z m22 -16 c-4 -8 -2 -17 4 -20 5
-4 7 -11 3 -16 -3 -5 -10 -7 -15 -4 -5 4 -9 2 -9 -3 0 -10 29 -26 43 -24 13 3
7 -15 -10 -29 -15 -12 -16 -12 -10 3 4 12 0 21 -12 28 -22 11 -36 41 -19 37 7
-1 13 4 14 11 1 6 2 17 3 22 0 6 4 10 7 10 3 0 4 -7 1 -15z m-39 -100 c-3 -3
-9 2 -12 12 -6 14 -5 15 5 6 7 -7 10 -15 7 -18z m-24 -140 c3 -8 1 -15 -4 -15
-6 0 -10 7 -10 15 0 8 2 15 4 15 2 0 6 -7 10 -15z m-364 -64 c-5 -11 -10 -26
-9 -33 0 -10 2 -10 6 1 5 11 7 11 14 0 7 -11 11 -10 24 6 14 19 15 18 4 -7
-12 -28 -29 -38 -29 -16 0 6 -3 8 -7 5 -3 -4 -12 -2 -19 4 -11 9 -10 15 3 35
18 29 28 32 13 5z m110 -51 c0 -5 -4 -10 -10 -10 -5 0 -10 5 -10 10 0 6 5 10
10 10 6 0 10 -4 10 -10z"/>
<path d="M1706 3142 c-3 -5 1 -9 9 -9 8 0 12 4 9 9 -3 4 -7 8 -9 8 -2 0 -6 -4
-9 -8z"/>
<path d="M2027 3089 c7 -7 15 -10 18 -7 3 3 -2 9 -12 12 -14 6 -15 5 -6 -5z"/>
<path d="M3466 1873 c-6 -14 -5 -15 5 -6 7 7 10 15 7 18 -3 3 -9 -2 -12 -12z"/>
<path d="M413 1129 c-2 -23 3 -25 10 -4 4 8 3 16 -1 19 -4 3 -9 -4 -9 -15z"/>
<path d="M2325 3200 c-3 -5 -1 -10 4 -10 6 0 11 5 11 10 0 6 -2 10 -4 10 -3 0
-8 -4 -11 -10z"/>
<path d="M2564 3202 c3 -5 1 -12 -6 -14 -8 -3 -9 -6 -1 -11 6 -4 13 0 17 8 3
8 0 17 -6 21 -6 4 -8 3 -4 -4z"/>
<path d="M1626 3169 c2 -13 2 -18 -2 -12 -4 10 -9 9 -21 -3 -8 -8 -12 -18 -8
-22 4 -4 10 -1 12 6 3 6 9 10 14 6 14 -8 23 26 11 38 -8 8 -10 4 -6 -13z"/>
<path d="M1690 3180 c-9 -6 -10 -10 -3 -10 6 0 15 5 18 10 8 12 4 12 -15 0z"/>
<path d="M1730 3179 c0 -5 5 -7 10 -4 6 3 10 8 10 11 0 2 -4 4 -10 4 -5 0 -10
-5 -10 -11z"/>
<path d="M1960 3175 c-8 -9 -21 -13 -34 -10 -20 6 -20 5 -2 -6 15 -9 22 -7 39
10 12 11 19 21 15 21 -3 0 -11 -7 -18 -15z"/>
<path d="M2614 3182 c4 -3 14 -7 22 -8 9 -1 13 0 10 4 -4 3 -14 7 -22 8 -9 1
-13 0 -10 -4z"/>
<path d="M1877 3173 c-10 -9 -9 -23 1 -23 5 0 9 7 9 15 0 17 -1 18 -10 8z"/>
<path d="M1420 3166 c0 -2 8 -10 18 -17 15 -13 16 -12 3 4 -13 16 -21 21 -21
13z"/>
<path d="M1796 3158 c3 -5 10 -6 15 -3 13 9 11 12 -6 12 -8 0 -12 -4 -9 -9z"/>
<path d="M2015 3151 c-3 -5 -2 -12 3 -15 5 -3 9 1 9 9 0 17 -3 19 -12 6z"/>
<path d="M2638 3153 c7 -3 16 -2 19 1 4 3 -2 6 -13 5 -11 0 -14 -3 -6 -6z"/>
<path d="M1470 3139 c0 -5 5 -7 10 -4 6 3 10 8 10 11 0 2 -4 4 -10 4 -5 0 -10
-5 -10 -11z"/>
<path d="M1508 3143 c7 -3 16 -2 19 1 4 3 -2 6 -13 5 -11 0 -14 -3 -6 -6z"/>
<path d="M2648 3116 c-16 -22 -16 -25 2 -41 11 -10 17 -21 15 -25 -3 -5 4 -6
15 -3 11 3 23 10 26 15 4 6 -2 7 -16 3 -17 -6 -21 -4 -14 6 13 21 13 39 1 36
-7 -1 -11 6 -9 16 4 22 1 21 -20 -7z m26 -38 c-3 -5 -12 -4 -20 3 -7 6 -11 15
-8 21 3 5 12 4 20 -3 7 -6 11 -15 8 -21z"/>
<path d="M1490 3118 c0 -5 -4 -7 -9 -4 -5 3 -12 -1 -15 -9 -6 -16 -26 -16 -39
0 -5 6 -7 3 -3 -7 7 -22 -9 -32 -32 -19 -14 7 -19 6 -19 -4 0 -7 7 -11 15 -7
9 3 13 1 9 -5 -4 -6 1 -17 11 -24 9 -7 14 -10 10 -5 -13 15 11 45 32 41 11 -2
18 0 15 5 -6 10 34 35 52 32 6 -1 14 2 17 6 3 5 -6 10 -19 10 -14 0 -25 -5
-25 -10z"/>
<path d="M2095 3120 c3 -5 8 -10 11 -10 2 0 4 5 4 10 0 6 -5 10 -11 10 -5 0
-7 -4 -4 -10z"/>
<path d="M2173 3111 c0 -11 5 -18 9 -15 4 3 5 11 1 19 -7 21 -12 19 -10 -4z"/>
<path d="M2206 3118 c3 -5 10 -6 15 -3 13 9 11 12 -6 12 -8 0 -12 -4 -9 -9z"/>
<path d="M1270 2984 c0 -6 7 -19 16 -30 14 -18 14 -18 3 6 -14 31 -19 36 -19
24z"/>
<path d="M1177 2951 c-4 -17 -3 -21 5 -13 5 5 8 16 6 23 -3 8 -7 3 -11 -10z"/>
<path d="M1250 2960 c0 -5 5 -10 11 -10 5 0 7 5 4 10 -3 6 -8 10 -11 10 -2 0
-4 -4 -4 -10z"/>
<path d="M2794 2949 c-3 -6 -2 -15 3 -20 5 -5 9 -1 9 11 0 23 -2 24 -12 9z"/>
<path d="M1117 2939 c7 -7 15 -10 18 -7 3 3 -2 9 -12 12 -14 6 -15 5 -6 -5z"/>
<path d="M1093 2925 c0 -8 4 -15 9 -15 4 0 8 4 8 9 0 6 -4 12 -8 15 -5 3 -9
-1 -9 -9z"/>
<path d="M1027 2919 c7 -7 15 -10 18 -7 3 3 -2 9 -12 12 -14 6 -15 5 -6 -5z"/>
<path d="M1050 2900 c-9 -6 -10 -10 -3 -10 6 0 15 5 18 10 8 12 4 12 -15 0z"/>
<path d="M2870 2830 c13 -24 17 -25 17 -5 0 8 -6 16 -14 19 -11 4 -11 1 -3
-14z"/>
<path d="M955 2829 c-4 -6 -5 -12 -2 -15 2 -3 7 2 10 11 7 17 1 20 -8 4z"/>
<path d="M877 2779 c7 -7 15 -10 18 -7 3 3 -2 9 -12 12 -14 6 -15 5 -6 -5z"/>
<path d="M2890 2759 c0 -5 -4 -8 -9 -5 -13 8 -7 -22 7 -36 9 -9 11 -6 7 10 -2
12 0 22 6 22 5 0 9 5 9 10 0 6 -4 10 -10 10 -5 0 -10 -5 -10 -11z"/>
<path d="M873 2753 c11 -11 -13 -32 -31 -27 -14 5 -14 3 1 -6 15 -10 21 -8 31
6 9 12 15 14 20 6 4 -7 3 -12 -2 -12 -6 0 -12 -7 -16 -15 -4 -12 -2 -13 14 -2
11 6 20 15 20 19 0 8 -29 38 -37 38 -4 0 -3 -3 0 -7z"/>
<path d="M759 2655 c-1 -3 -2 -8 -3 -12 -1 -5 -5 -14 -10 -21 -7 -11 -4 -11
13 0 12 7 17 14 11 16 -6 2 -8 8 -4 13 3 5 3 9 0 9 -3 0 -7 -2 -7 -5z"/>
<path d="M2966 2638 c3 -4 9 -8 15 -8 5 0 9 4 9 8 0 5 -7 9 -15 9 -8 0 -12 -4
-9 -9z"/>
<path d="M3014 2595 c3 -23 12 -26 13 -5 1 11 -2 20 -7 20 -4 0 -7 -7 -6 -15z"/>
<path d="M2973 2574 c0 -8 9 -21 19 -31 17 -15 18 -15 18 3 0 11 -8 24 -18 31
-15 9 -19 8 -19 -3z"/>
<path d="M3055 2540 c3 -5 8 -10 11 -10 2 0 4 5 4 10 0 6 -5 10 -11 10 -5 0
-7 -4 -4 -10z"/>
<path d="M615 2460 c3 -5 8 -10 11 -10 2 0 4 5 4 10 0 6 -5 10 -11 10 -5 0 -7
-4 -4 -10z"/>
<path d="M3195 2430 c-4 -6 -11 -7 -17 -4 -7 4 -8 2 -4 -5 6 -9 11 -9 22 0 14
11 18 19 10 19 -3 0 -8 -5 -11 -10z"/>
<path d="M3191 2397 c-8 -10 -7 -14 2 -14 8 0 14 6 14 14 0 7 -1 13 -2 13 -2
0 -8 -6 -14 -13z"/>
<path d="M595 2389 c-4 -6 -5 -12 -2 -15 2 -3 7 2 10 11 7 17 1 20 -8 4z"/>
<path d="M525 2359 c-4 -6 -5 -12 -2 -15 2 -3 7 2 10 11 7 17 1 20 -8 4z"/>
<path d="M555 2360 c-3 -6 1 -7 9 -4 18 7 21 14 7 14 -6 0 -13 -4 -16 -10z"/>
<path d="M3210 2365 c0 -14 33 -54 48 -59 15 -6 15 -5 0 7 -10 8 -16 16 -15
18 2 2 -5 12 -15 22 -10 9 -18 15 -18 12z"/>
<path d="M590 2352 c0 -7 -3 -11 -7 -10 -5 1 -18 -1 -30 -6 -24 -8 -30 -21
-14 -31 13 -7 68 41 59 51 -5 4 -8 2 -8 -4z m-10 -17 c0 -2 -10 -9 -22 -15
-22 -11 -22 -10 -4 4 21 17 26 19 26 11z"/>
<path d="M470 2346 c0 -2 7 -7 16 -10 8 -3 12 -2 9 4 -6 10 -25 14 -25 6z"/>
<path d="M500 2320 c-9 -6 -10 -10 -3 -10 6 0 15 5 18 10 8 12 4 12 -15 0z"/>
<path d="M414 2298 c-3 -5 0 -7 7 -6 6 2 14 -3 17 -11 3 -8 0 -11 -7 -7 -7 5
-9 1 -4 -11 6 -16 5 -16 -10 -4 -10 8 -20 11 -24 7 -3 -3 -1 -6 6 -6 7 0 10
-4 6 -9 -10 -17 15 -23 31 -7 9 9 19 14 24 11 5 -3 12 0 16 6 5 8 1 10 -14 7
-18 -5 -20 -3 -12 16 6 18 4 22 -12 22 -11 0 -22 -4 -24 -8z"/>
<path d="M3230 2294 c8 -10 15 -20 16 -22 1 -2 4 1 7 5 3 5 -4 15 -16 23 -21
12 -21 12 -7 -6z"/>
<path d="M3295 2301 c-3 -5 -2 -12 3 -15 5 -3 9 1 9 9 0 17 -3 19 -12 6z"/>
<path d="M233 2165 c-3 -9 -3 -18 -1 -21 3 -3 8 4 11 16 6 23 -1 27 -10 5z"/>
<path d="M195 2161 c-3 -5 -2 -12 3 -15 5 -3 9 1 9 9 0 17 -3 19 -12 6z"/>
<path d="M3389 2119 c-9 -17 -8 -25 5 -37 10 -11 16 -12 16 -4 0 7 -4 12 -10
12 -5 0 -10 5 -10 11 0 5 4 8 8 5 4 -2 8 4 8 15 0 24 -3 24 -17 -2z"/>
<path d="M240 2119 c0 -5 5 -7 10 -4 6 3 10 8 10 11 0 2 -4 4 -10 4 -5 0 -10
-5 -10 -11z"/>
<path d="M195 2101 c6 -11 4 -13 -9 -8 -14 6 -15 3 -6 -13 9 -17 14 -18 30 -8
10 7 18 13 17 13 -1 0 -11 7 -21 15 -17 13 -18 13 -11 1z"/>
<path d="M141 2074 c0 -11 3 -14 6 -6 3 7 2 16 -1 19 -3 4 -6 -2 -5 -13z"/>
<path d="M3431 2006 c-7 -9 -6 -18 4 -33 8 -11 11 -23 7 -27 -3 -4 1 -4 11 0
9 3 17 11 17 16 0 6 8 4 18 -3 15 -12 16 -12 5 2 -7 9 -10 19 -6 22 3 4 2 7
-4 7 -6 0 -14 -8 -17 -17 -6 -15 -9 -15 -16 -3 -6 9 -3 18 7 25 14 11 14 12 0
18 -8 3 -20 0 -26 -7z"/>
<path d="M46 1938 c3 -5 10 -6 15 -3 13 9 11 12 -6 12 -8 0 -12 -4 -9 -9z"/>
<path d="M80 1920 c0 -5 5 -10 11 -10 5 0 7 5 4 10 -3 6 -8 10 -11 10 -2 0 -4
-4 -4 -10z"/>
<path d="M36 1833 c-6 -14 -5 -15 5 -6 7 7 10 15 7 18 -3 3 -9 -2 -12 -12z"/>
<path d="M78 1823 c7 -3 16 -2 19 1 4 3 -2 6 -13 5 -11 0 -14 -3 -6 -6z"/>
<path d="M3517 1753 c-10 -9 -9 -23 1 -23 5 0 9 7 9 15 0 17 -1 18 -10 8z"/>
<path d="M50 1739 c0 -5 5 -7 10 -4 6 3 10 8 10 11 0 2 -4 4 -10 4 -5 0 -10
-5 -10 -11z"/>
<path d="M3540 1720 c-8 -5 -10 -10 -5 -10 6 0 17 5 25 10 8 5 11 10 5 10 -5
0 -17 -5 -25 -10z"/>
<path d="M3494 1682 c0 -19 19 -24 31 -9 3 4 2 5 -2 2 -3 -3 -11 2 -17 11 -10
13 -12 13 -12 -4z"/>
<path d="M74 1682 c4 -3 14 -7 22 -8 9 -1 13 0 10 4 -4 3 -14 7 -22 8 -9 1
-13 0 -10 -4z"/>
<path d="M3536 1653 c-6 -14 -5 -15 5 -6 7 7 10 15 7 18 -3 3 -9 -2 -12 -12z"/>
<path d="M137 1574 c18 -13 20 -20 13 -35 -8 -14 -7 -17 3 -14 24 10 17 42
-11 54 -27 11 -27 11 -5 -5z"/>
<path d="M3508 1573 c7 -3 16 -2 19 1 4 3 -2 6 -13 5 -11 0 -14 -3 -6 -6z"/>
<path d="M110 1560 c0 -6 7 -10 15 -10 8 0 15 2 15 4 0 2 -7 6 -15 10 -8 3
-15 1 -15 -4z"/>
<path d="M185 1528 c-4 -10 -12 -15 -19 -11 -6 3 -3 -3 7 -14 11 -13 15 -27
10 -39 -7 -19 -7 -19 12 0 20 20 29 46 15 46 -5 0 -10 8 -13 18 -4 16 -4 16
-12 0z m16 -35 c13 -16 12 -17 -3 -4 -10 7 -18 15 -18 17 0 8 8 3 21 -13z"/>
<path d="M140 1465 c0 -2 6 -8 13 -14 10 -8 14 -7 14 2 0 8 -6 14 -14 14 -7 0
-13 -1 -13 -2z"/>
<path d="M3455 1400 c3 -5 8 -10 11 -10 2 0 4 5 4 10 0 6 -5 10 -11 10 -5 0
-7 -4 -4 -10z"/>
<path d="M216 1358 c3 -5 10 -6 15 -3 13 9 11 12 -6 12 -8 0 -12 -4 -9 -9z"/>
<path d="M246 1342 c-3 -5 1 -9 9 -9 8 0 12 4 9 9 -3 4 -7 8 -9 8 -2 0 -6 -4
-9 -8z"/>
<path d="M3475 1341 c-3 -5 -2 -12 3 -15 5 -3 9 1 9 9 0 17 -3 19 -12 6z"/>
<path d="M3393 1255 c-3 -9 -3 -18 -1 -21 3 -3 8 4 11 16 6 23 -1 27 -10 5z"/>
<path d="M1653 1196 c4 -9 -2 -17 -13 -21 -22 -7 -33 -32 -18 -41 6 -4 8 -3 4
4 -3 6 7 20 24 32 17 12 28 26 25 31 -10 15 -28 10 -22 -5z"/>
<path d="M3283 1203 c4 -3 0 -15 -10 -25 -17 -19 -15 -32 3 -20 18 11 27 52
13 52 -7 0 -9 -3 -6 -7z"/>
<path d="M1679 1172 c-13 -15 -17 -21 -10 -15 11 10 18 10 30 1 9 -7 13 -8 9
-4 -4 5 -3 15 3 22 21 26 -9 22 -32 -4z"/>
<path d="M334 1178 c-4 -6 -3 -8 4 -4 6 3 18 -4 26 -16 9 -12 16 -17 16 -11 0
11 -26 43 -35 43 -2 0 -7 -5 -11 -12z"/>
<path d="M3336 1182 c-2 -4 4 -8 14 -8 10 0 16 4 14 8 -3 4 -9 8 -14 8 -5 0
-11 -4 -14 -8z"/>
<path d="M1521 1171 c-8 -5 -16 -18 -17 -28 -2 -16 0 -15 15 4 10 12 22 19 26
15 5 -4 5 -1 1 6 -8 14 -7 14 -25 3z"/>
<path d="M1535 1141 c-3 -5 0 -13 6 -17 7 -4 9 -3 5 4 -3 5 0 13 6 15 9 4 10
6 1 6 -6 1 -14 -3 -18 -8z"/>
<path d="M1781 1124 c0 -11 3 -14 6 -6 3 7 2 16 -1 19 -3 4 -6 -2 -5 -13z"/>
<path d="M1837 1123 c3 -7 9 -10 14 -7 14 8 11 21 -5 21 -8 0 -12 -6 -9 -14z"/>
<path d="M3296 1113 c-6 -14 -5 -15 5 -6 7 7 10 15 7 18 -3 3 -9 -2 -12 -12z"/>
<path d="M373 1095 c0 -8 4 -12 9 -9 5 3 6 10 3 15 -9 13 -12 11 -12 -6z"/>
<path d="M1456 1101 c-4 -5 3 -7 14 -4 23 6 26 13 6 13 -8 0 -17 -4 -20 -9z"/>
<path d="M1279 1036 c-19 -16 -24 -27 -18 -42 7 -17 8 -17 8 4 1 13 4 21 9 18
13 -8 47 23 36 33 -5 6 -19 1 -35 -13z m31 10 c0 -2 -8 -10 -17 -17 -16 -13
-17 -12 -4 4 13 16 21 21 21 13z"/>
<path d="M1347 1031 c-4 -17 -3 -21 5 -13 5 5 8 16 6 23 -3 8 -7 3 -11 -10z"/>
<path d="M399 1013 c-13 -16 -12 -17 3 -5 10 8 19 9 22 3 4 -5 2 -12 -4 -16
-5 -3 -10 -11 -10 -17 0 -5 9 0 20 13 10 13 19 19 20 14 0 -6 -6 -17 -12 -24
-7 -8 -1 -6 15 4 15 9 27 20 27 23 0 3 -3 2 -7 -1 -3 -4 -12 -2 -20 4 -7 6
-13 8 -13 4 0 -4 -6 -2 -14 4 -10 9 -17 7 -27 -6z"/>
<path d="M1310 1010 c-8 -5 -12 -12 -9 -15 4 -3 12 1 19 10 14 17 11 19 -10 5z"/>
<path d="M1386 1005 c-11 -8 -15 -15 -9 -15 6 0 16 7 23 15 16 19 11 19 -14 0z"/>
<path d="M1887 999 c7 -7 15 -10 18 -7 3 3 -2 9 -12 12 -14 6 -15 5 -6 -5z"/>
<path d="M1996 972 c-3 -6 -1 -14 5 -17 15 -10 25 3 12 16 -7 7 -13 7 -17 1z"/>
<path d="M1245 960 c3 -5 8 -10 11 -10 2 0 4 5 4 10 0 6 -5 10 -11 10 -5 0 -7
-4 -4 -10z"/>
<path d="M1935 960 c3 -5 8 -10 11 -10 2 0 4 5 4 10 0 6 -5 10 -11 10 -5 0 -7
-4 -4 -10z"/>
<path d="M1215 951 c-3 -5 -2 -12 3 -15 5 -3 9 1 9 9 0 17 -3 19 -12 6z"/>
<path d="M475 910 c-3 -5 -1 -10 4 -10 6 0 11 5 11 10 0 6 -2 10 -4 10 -3 0
-8 -4 -11 -10z"/>
<path d="M3190 909 c0 -5 5 -7 10 -4 6 3 10 8 10 11 0 2 -4 4 -10 4 -5 0 -10
-5 -10 -11z"/>
<path d="M555 880 c-3 -5 -1 -10 4 -10 6 0 11 5 11 10 0 6 -2 10 -4 10 -3 0
-8 -4 -11 -10z"/>
<path d="M940 880 c11 -7 11 -10 2 -10 -7 0 -10 -5 -7 -10 4 -6 15 -8 26 -5
15 5 18 3 13 -12 -5 -15 -4 -15 5 -3 8 12 5 19 -12 32 -12 10 -26 18 -32 18
-5 0 -3 -5 5 -10z"/>
<path d="M2070 881 c0 -6 4 -13 10 -16 6 -3 7 1 4 9 -7 18 -14 21 -14 7z"/>
<path d="M518 863 c7 -3 16 -2 19 1 4 3 -2 6 -13 5 -11 0 -14 -3 -6 -6z"/>
<path d="M2157 859 c7 -7 15 -10 18 -7 3 3 -2 9 -12 12 -14 6 -15 5 -6 -5z"/>
<path d="M3142 865 c3 -3 16 -8 28 -10 12 -2 20 -1 16 2 -4 4 -16 8 -28 10
-12 2 -19 1 -16 -2z"/>
<path d="M547 847 c-3 -7 3 -13 13 -13 10 0 16 6 13 13 -3 7 -9 13 -13 13 -4
0 -10 -6 -13 -13z"/>
<path d="M594 815 c3 -23 12 -26 13 -5 1 11 -2 20 -7 20 -4 0 -7 -7 -6 -15z"/>
<path d="M550 800 c0 -5 5 -10 11 -10 5 0 7 5 4 10 -3 6 -8 10 -11 10 -2 0 -4
-4 -4 -10z"/>
<path d="M735 800 c-3 -6 1 -7 9 -4 18 7 21 14 7 14 -6 0 -13 -4 -16 -10z"/>
<path d="M3110 779 c0 -5 5 -7 10 -4 6 3 10 8 10 11 0 2 -4 4 -10 4 -5 0 -10
-5 -10 -11z"/>
<path d="M2343 772 c-7 -4 -9 -13 -4 -21 6 -9 10 -7 14 8 3 12 4 21 4 21 -1 0
-7 -4 -14 -8z"/>
<path d="M2279 753 c-13 -16 -12 -17 4 -4 14 11 20 11 35 0 15 -13 16 -12 3 4
-7 9 -17 17 -21 17 -4 0 -14 -8 -21 -17z"/>
<path d="M2373 695 c0 -8 4 -12 9 -9 5 3 6 10 3 15 -9 13 -12 11 -12 -6z"/>
<path d="M2420 681 c0 -5 7 -17 17 -26 14 -14 14 -18 2 -27 -11 -8 -11 -9 3
-4 20 6 35 -10 16 -17 -9 -3 -5 -11 10 -22 20 -14 21 -19 10 -33 -11 -15 -11
-15 4 -4 10 8 19 9 22 3 4 -5 -3 -12 -14 -16 -11 -3 -20 -11 -20 -16 0 -6 4
-8 9 -5 5 4 11 3 14 -1 2 -5 2 -2 0 6 -2 7 2 11 10 8 18 -7 20 38 2 53 -8 7
-12 16 -10 21 3 4 -4 13 -16 19 -11 7 -18 14 -15 17 3 4 -4 13 -15 21 -17 12
-18 16 -8 23 11 7 10 9 -3 9 -10 0 -18 -4 -18 -9z m67 -78 c-4 -3 1 -16 10
-27 18 -21 18 -21 -4 -2 -25 21 -30 36 -11 36 6 0 8 -3 5 -7z"/>
<path d="M3070 619 c0 -5 5 -7 10 -4 6 3 10 8 10 11 0 2 -4 4 -10 4 -5 0 -10
-5 -10 -11z"/>
<path d="M3056 583 c-10 -10 -7 -33 4 -33 5 0 7 7 4 15 -5 11 -2 13 10 9 9 -3
16 -4 16 -1 0 8 -28 16 -34 10z"/>
<path d="M2453 565 c0 -8 4 -12 9 -9 5 3 6 10 3 15 -9 13 -12 11 -12 -6z"/>
<path d="M3002 559 c2 -28 45 -69 45 -44 0 8 -4 12 -8 9 -7 -4 -35 37 -30 44
2 2 0 6 -3 10 -3 3 -5 -6 -4 -19z"/>
<path d="M2476 487 c3 -10 9 -15 12 -12 3 3 0 11 -7 18 -10 9 -11 8 -5 -6z"/>
<path d="M2560 476 c0 -2 8 -10 18 -17 15 -13 16 -12 3 4 -13 16 -21 21 -21
13z"/>
<path d="M3029 463 c-13 -16 -12 -17 4 -4 16 13 21 21 13 21 -2 0 -10 -8 -17
-17z"/>
<path d="M2494 438 c-4 -7 -4 -10 1 -6 4 4 15 2 24 -5 14 -11 14 -10 2 6 -16
20 -18 21 -27 5z"/>
<path d="M2510 400 c0 -5 5 -10 11 -10 5 0 7 5 4 10 -3 6 -8 10 -11 10 -2 0
-4 -4 -4 -10z"/>
<path d="M2588 383 c6 -2 9 -10 6 -15 -4 -7 -2 -8 5 -4 13 9 5 26 -12 25 -9 0
-8 -2 1 -6z"/>
<path d="M2935 371 c-3 -5 -2 -12 3 -15 5 -3 9 1 9 9 0 17 -3 19 -12 6z"/>
<path d="M2691 354 c0 -11 3 -14 6 -6 3 7 2 16 -1 19 -3 4 -6 -2 -5 -13z"/>
<path d="M2870 356 c0 -2 8 -10 18 -17 15 -13 16 -12 3 4 -13 16 -21 21 -21
13z"/>
<path d="M2640 340 c8 -5 20 -10 25 -10 6 0 3 5 -5 10 -8 5 -19 10 -25 10 -5
0 -3 -5 5 -10z"/>
<path d="M2732 340 c2 -8 -2 -14 -8 -13 -6 1 -11 -5 -11 -12 0 -10 4 -12 12
-5 7 5 14 7 18 4 3 -3 4 1 3 10 -1 8 -6 19 -10 23 -4 4 -6 1 -4 -7z"/>
<path d="M2853 315 c0 -8 4 -12 9 -9 5 3 6 10 3 15 -9 13 -12 11 -12 -6z"/>
</g>
</svg>
